#!OML:ASF E:\inclinewalkrobotboard\Project 1\Capture day 1\Session 1\subject1.ASF
:FULLY-SPECIFIED
:DEGREES
277
root 8.28155 22.5921 0.736265 -167.585 -3.08298 177.075
lowerback 3.21091 -1.6027 -7.51218
upperback 3.94841 -2.51641 2.37985
thorax 2.73575 -1.60693 6.71927
lowerneck -6.76512 -1.62754 -3.1578
upperneck 25.6118 -0.903347 4.3373
head 9.16431 0.406032 2.05257
rclavicle 9.93923e-016 -2.70347e-014
rhumerus -87.6054 -49.4602 -7.27761
rradius 12.4734
rwrist 57.6524
rhand -11.867 -37.9729
rfingers 7.12502
rthumb 14.1851 -67.4686
lclavicle 9.93923e-016 -2.70347e-014
lhumerus -22.6859 -1.19629 89.9941
lradius 34.136
lwrist -17.2708
lhand -28.0042 -24.3625
lfingers 7.12502
lthumb -1.38994 5.61274
rfemur -47.931 2.35759 17.2234
rtibia 36.6059
rfoot -11.4016 -8.36195
rtoes -28.3383
lfemur -2.04079 -10.2522 -25.387
ltibia 20.9103
lfoot -13.6285 1.38887
ltoes -67.7167
278
root 8.31097 22.692 0.497273 -167.333 -3.02684 176.845
lowerback 2.63319 -1.96825 -8.16899
upperback 4.3455 -3.01542 2.9114
thorax 3.64318 -1.96075 7.62358
lowerneck -7.7298 -1.25356 -4.24632
upperneck 25.7044 -0.237394 4.2006
head 9.35611 0.565324 2.25994
rclavicle -1.19271e-015 9.93923e-015
rhumerus -77.6756 -50.2046 -17.6725
rradius 12.7862
rwrist 52.7264
rhand -11.2557 -37.9897
rfingers 7.12502
rthumb 14.7741 -67.4431
lclavicle -1.19271e-015 9.93923e-015
lhumerus -22.0924 1.87551 90.1486
lradius 31.9819
lwrist -17.8846
lhand -27.3301 -23.9733
lfingers 7.12502
lthumb -0.738913 6.00517
rfemur -46.6749 2.03056 17.2897
rtibia 35.8344
rfoot -12.244 -7.80917
rtoes -27.8344
lfemur -2.59278 -9.98152 -25.3714
ltibia 22.2882
lfoot -10.7667 1.05299
ltoes -68.0416
279
root 8.34324 22.7947 0.269632 -167.175 -2.84743 176.756
lowerback 2.68812 -1.68807 -7.88346
upperback 4.0986 -2.60596 2.58419
thorax 3.23652 -1.69742 7.1256
lowerneck -7.24591 -1.51531 -3.66376
upperneck 25.7439 -0.685449 4.33317
head 9.2958 0.448762 2.16272
rclavicle -7.95139e-016 -1.27222e-014
rhumerus -70.9497 -49.0087 -27.0766
rradius 13.7281
rwrist 46.4676
rhand -11.5236 -37.5299
rfingers 7.12502
rthumb 14.5161 -67.0021
lclavicle -7.95139e-016 -1.27222e-014
lhumerus -22.8127 1.87613 89.6018
lradius 30.098
lwrist -18.3286
lhand -26.6525 -23.0512
lfingers 7.12502
lthumb -0.0844797 6.92849
rfemur -45.3011 2.1716 17.3613
rtibia 34.8532
rfoot -12.9616 -7.38644
rtoes -26.8567
lfemur -3.35611 -9.53589 -25.1606
ltibia 24.0717
lfoot -7.82495 0.595883
ltoes -68.5121
280
root 8.37892 22.8964 0.055025 -167.026 -2.53505 176.793
lowerback 2.77654 -1.86588 -7.93327
upperback 4.07653 -2.86259 2.77935
thorax 3.22573 -1.8333 7.36226
lowerneck -7.66163 -1.237 -4.42594
upperneck 25.9129 -0.18872 4.38306
head 9.41504 0.603824 2.3659
rclavicle 1.72943e-014 3.18055e-014
rhumerus -63.4254 -47.775 -35.1331
rradius 14.1979
rwrist 42.6985
rhand -12.4717 -37.0018
rfingers 7.12502
rthumb 13.6024 -66.5374
lclavicle 1.72943e-014 3.18055e-014
lhumerus -23.3537 4.23381 89.0659
lradius 28.5906
lwrist -19.3869
lhand -25.7662 -22.3076
lfingers 7.12502
lthumb 0.77152 7.67072
rfemur -44.0426 2.62751 17.5336
rtibia 33.8916
rfoot -13.5676 -7.09965
rtoes -25.9819
lfemur -4.52848 -8.80034 -24.7229
ltibia 26.4269
lfoot -4.7646 0.0744642
ltoes -68.8776
281
root 8.40389 22.9789 -0.150275 -166.529 -1.88248 176.641
lowerback 2.19273 -1.29904 -7.71343
upperback 3.77338 -2.00223 2.30438
thorax 3.04357 -1.34528 6.73005
lowerneck -6.77617 -1.61913 -3.54833
upperneck 25.6846 -0.81961 4.35366
head 9.19151 0.412833 2.13567
rclavicle -5.56597e-015 6.75868e-015
rhumerus -59.0883 -46.2595 -41.6782
rradius 15.3983
rwrist 37.8155
rhand -13.394 -37.0744
rfingers 7.12502
rthumb 12.7134 -66.6674
lclavicle -5.56597e-015 6.75868e-015
lhumerus -24.3669 3.39706 88.444
lradius 27.0668
lwrist -20.1317
lhand -25.2153 -22.2085
lfingers 7.12502
lthumb 1.30364 7.76722
rfemur -43.4963 3.08336 17.4974
rtibia 33.3362
rfoot -14.0984 -6.76731
rtoes -25.5718
lfemur -6.50108 -7.84894 -24.6087
ltibia 29.4984
lfoot -2.00391 -0.335233
ltoes -69.2123
282
root 8.42437 23.0629 -0.373836 -166.747 -1.71525 176.007
lowerback 2.25351 -1.50079 -8.25198
upperback 3.85329 -2.28641 2.2833
thorax 3.17007 -1.51572 7.01125
lowerneck -7.19968 -1.30794 -4.05416
upperneck 25.9302 -0.24397 4.13934
head 9.33563 0.60828 2.21207
rclavicle 9.54166e-015 -2.74323e-014
rhumerus -52.348 -43.4388 -49.1366
rradius 16.4004
rwrist 33.726
rhand -14.05 -37.9682
rfingers 7.12502
rthumb 12.0809 -67.5995
lclavicle 9.54166e-015 -2.74323e-014
lhumerus -25.0994 5.46367 87.844
lradius 25.3425
lwrist -21.412
lhand -25.4794 -23.2427
lfingers 7.12502
lthumb 1.04859 6.73443
rfemur -41.6162 3.01964 16.9744
rtibia 32.1552
rfoot -14.5934 -6.66824
rtoes -26.1009
lfemur -7.77899 -7.23606 -25.1713
ltibia 32.934
lfoot 0.355177 -0.949828
ltoes -69.5797
283
root 8.45829 23.1605 -0.571766 -166.946 -2.02495 176.399
lowerback 2.52338 -1.84823 -7.86536
upperback 3.95683 -2.80123 2.65792
thorax 3.22001 -1.78558 7.18704
lowerneck -7.9545 -0.908493 -4.75036
upperneck 26.176 0.476079 3.93755
head 9.53593 0.840294 2.34367
rclavicle -3.63776e-014 3.85642e-014
rhumerus -45.9734 -40.0687 -55.7649
rradius 17.352
rwrist 30.065
rhand -14.7366 -38.7566
rfingers 7.12502
rthumb 11.4188 -68.4257
lclavicle -3.63776e-014 3.85642e-014
lhumerus -25.658 7.96434 87.1773
lradius 23.7706
lwrist -22.6964
lhand -25.8871 -24.0995
lfingers 7.12502
lthumb 0.654815 5.87924
rfemur -39.6303 3.24633 17.5738
rtibia 30.713
rfoot -15.1339 -6.77245
rtoes -26.6231
lfemur -9.8116 -6.67927 -24.2323
ltibia 37.2009
lfoot 2.26961 -1.70919
ltoes -69.8797
284
root 8.48469 23.2332 -0.754454 -166.896 -1.89453 176.579
lowerback 2.23871 -1.53117 -7.41878
upperback 3.87462 -2.33183 2.46034
thorax 3.17405 -1.51978 6.72101
lowerneck -7.28801 -1.13266 -4.27849
upperneck 25.8551 0.105589 3.81678
head 9.31236 0.709355 2.17117
rclavicle 1.98785e-016 -1.51076e-014
rhumerus -42.4076 -37.7106 -60.4445
rradius 18.7092
rwrist 26.5033
rhand -15.3776 -39.1251
rfingers 7.12502
rthumb 10.8006 -68.8274
lclavicle 1.98785e-016 -1.51076e-014
lhumerus -26.2672 7.7514 86.5372
lradius 22.4574
lwrist -23.668
lhand -25.7745 -23.4935
lfingers 7.12502
lthumb 0.763508 6.48487
rfemur -38.4024 3.45304 17.9156
rtibia 29.7457
rfoot -15.5465 -6.39122
rtoes -26.3547
lfemur -12.4502 -5.99985 -23.6986
ltibia 41.8563
lfoot 3.89805 -2.1643
ltoes -69.8798
285
root 8.49811 23.3135 -0.966689 -167.784 -1.65371 176.716
lowerback 2.66087 -1.82136 -7.30263
upperback 4.30266 -2.81281 2.80109
thorax 3.48133 -1.81781 7.01448
lowerneck -7.69845 -0.680854 -5.70972
upperneck 25.9552 0.968866 3.83121
head 9.38643 0.960645 2.51145
rclavicle -4.96962e-015 -2.0276e-014
rhumerus -36.8804 -33.3594 -65.4503
rradius 19.5475
rwrist 23.6541
rhand -15.6257 -39.289
rfingers 7.12502
rthumb 10.5612 -69.0036
lclavicle -4.96962e-015 -2.0276e-014
lhumerus -26.7643 11.0958 85.7922
lradius 21.4456
lwrist -25.3823
lhand -25.061 -22.8417
lfingers 7.12502
lthumb 1.45263 7.13314
rfemur -35.7442 3.66058 18.2238
rtibia 28.3033
rfoot -15.899 -5.97622
rtoes -25.8384
lfemur -13.6514 -5.29188 -23.5282
ltibia 45.9105
lfoot 4.11452 -1.36621
ltoes -70.2265
